<?xml version="1.0" encoding="UTF-8"?>
<svg id="uuid-71a625b9-cfa1-475c-a40c-a42ffae2fdbc" data-name="Capa 2" xmlns="http://www.w3.org/2000/svg" viewBox="0 0 1664 1014.01">
  <defs>
    <style>
      .uuid-884e4707-44ed-4b9b-99d3-3f9d27ec4d77 {
        fill: #fffdfa;
      }

      .uuid-884e4707-44ed-4b9b-99d3-3f9d27ec4d77, .uuid-18df94ea-e9c3-4900-bcfb-47b4ef3d282a {
        stroke-width: 0px;
      }

      .uuid-18df94ea-e9c3-4900-bcfb-47b4ef3d282a {
        fill: #fffdfa;
      }
    </style>
  </defs>
  <g id="uuid-254bc68d-9e7e-4da8-ab93-4f8ca2b5220b" data-name="Capa 1">
    <g>
      <g>
        <path class="uuid-18df94ea-e9c3-4900-bcfb-47b4ef3d282a" d="m858.47,785.64c-57.81,0-112.39-22.29-153.69-62.75l-6.9-6.76h321.18l-6.9,6.76c-41.3,40.47-95.88,62.75-153.69,62.75Zm-140.94-61.62c38.85,34.72,88.52,53.73,140.94,53.73s102.09-19.01,140.94-53.73h-281.88Z"/>
        <path class="uuid-18df94ea-e9c3-4900-bcfb-47b4ef3d282a" d="m1019.06,415.89h-321.18l6.9-6.76c41.3-40.47,95.88-62.75,153.69-62.75s112.39,22.29,153.69,62.75l6.9,6.76Zm-301.53-7.89h281.88c-38.85-34.72-88.52-53.73-140.94-53.73s-102.09,19.01-140.94,53.73Z"/>
        <path class="uuid-18df94ea-e9c3-4900-bcfb-47b4ef3d282a" d="m1059.63,477.52h-402.32l2.68-5.64c11.12-23.42,26.19-44.53,44.79-62.75l1.15-1.13h305.07l1.15,1.13c18.6,18.22,33.67,39.33,44.79,62.75l2.68,5.64Zm-389.73-7.89h377.14c-10.16-19.86-23.35-37.91-39.26-53.73h-298.62c-15.91,15.83-29.1,33.87-39.26,53.73Z"/>
        <path class="uuid-18df94ea-e9c3-4900-bcfb-47b4ef3d282a" d="m1075.86,534.63c-.16-1.13-.34-2.26-.51-3.39-2.95-18.55-8.25-36.58-15.81-53.73-.84-1.89-1.7-3.77-2.58-5.64l-1.07-2.25h-394.82l-1.07,2.25c-.89,1.87-1.75,3.75-2.58,5.64-7.56,17.15-12.86,35.18-15.81,53.73-.18,1.12-.35,2.26-.51,3.39l-.64,4.5h167.81c-1.37-2.52-2.41-5.15-3.12-7.89h-155.54c3.07-18.6,8.6-36.63,16.48-53.73h384.81c7.88,17.1,13.41,35.13,16.48,53.73h-181.55c.69,1.63,1.52,3.2,2.47,4.7l2.05,3.19h186.17l-.64-4.5Zm-251.68-3.39c.69,1.63,1.52,3.2,2.47,4.7l2.05,3.19h41.18c-1.37-2.52-2.41-5.15-3.12-7.89h-42.58Z"/>
        <path class="uuid-18df94ea-e9c3-4900-bcfb-47b4ef3d282a" d="m898.25,592.88h-15.22v7.89h15.25v-6.29c0-.54,0-1.07-.03-1.6Zm-61.63,0h-15.22v7.89h15.25v-6.27c0-.55-.01-1.09-.03-1.62Zm-195.06-61.63l-.48,3.39c-.22,1.5-.41,3-.59,4.5-1.1,8.93-1.65,17.95-1.65,26.87s.55,17.94,1.65,26.87c.18,1.51.37,3.01.59,4.5l.48,3.39h162.36v-7.89h-155.48c-1.13-8.92-1.7-17.95-1.7-26.87s.57-17.95,1.7-26.87h159.82c-1.37-2.52-2.41-5.15-3.12-7.89h-163.57Zm212.59,61.63v7.89h11.4v-7.89h-11.4Zm44.1,0h-15.22v7.89h15.25v-6.29c0-.54,0-1.07-.03-1.6Zm178.2-53.74c-.18-1.51-.37-3.01-.59-4.5l-.48-3.39h-189.57c.69,1.63,1.52,3.2,2.47,4.7l2.05,3.19h178.18c1.13,8.92,1.7,17.95,1.7,26.87s-.57,17.95-1.7,26.87h-152.73v7.89h159.6l.48-3.39c.22-1.5.41-3,.59-4.5,1.1-8.92,1.65-17.95,1.65-26.87s-.55-17.95-1.65-26.87Zm-193.41,53.74v7.89h15.25v-6.29c0-.54,0-1.07-.03-1.6h-15.22Zm15.22,0h-15.22v7.89h15.25v-6.29c0-.54,0-1.07-.03-1.6Zm-31.5-61.63h-42.58c.69,1.63,1.52,3.2,2.47,4.7l2.05,3.19h41.18c-1.37-2.52-2.41-5.15-3.12-7.89Z"/>
        <path class="uuid-18df94ea-e9c3-4900-bcfb-47b4ef3d282a" d="m854.15,592.88v7.89h11.4v-7.89h-11.4Zm61.63,0v7.89h151.58c-3.07,18.6-8.6,36.63-16.48,53.73h-384.81c-7.88-17.1-13.41-35.13-16.48-53.73h154.33v-7.89h-163.48l.64,4.5c.16,1.13.34,2.26.51,3.39,2.95,18.55,8.25,36.58,15.81,53.73.84,1.89,1.7,3.77,2.58,5.64l1.07,2.25h394.82l1.07-2.25c.89-1.87,1.75-3.75,2.58-5.64,7.56-17.15,12.86-35.18,15.81-53.73.18-1.12.35-2.26.51-3.39l.64-4.5h-160.73Zm-50.23,0h-11.4v7.89h11.4v-7.89Zm-28.89,1.62c0-.55-.01-1.09-.03-1.62h-15.22v7.89h15.25v-6.27Zm61.6-1.62h-15.22v7.89h15.25v-6.29c0-.54,0-1.07-.03-1.6Zm-44.1,0v7.89h11.4v-7.89h-11.4Z"/>
        <path class="uuid-18df94ea-e9c3-4900-bcfb-47b4ef3d282a" d="m1011,724.01h-305.07l-1.15-1.13c-18.6-18.22-33.67-39.33-44.79-62.75l-2.68-5.64h402.32l-2.68,5.64c-11.12,23.42-26.19,44.53-44.79,62.75l-1.15,1.13Zm-301.85-7.89h298.62c15.91-15.83,29.1-33.87,39.26-53.73h-377.14c10.16,19.86,23.35,37.91,39.26,53.73Z"/>
      </g>
      <g>
        <path class="uuid-18df94ea-e9c3-4900-bcfb-47b4ef3d282a" d="m1461.47,471.32c-51.57.82-71.04-16.48-78.84-26.17-37.38-46.43-3.26-162.25,66.01-226.02,38.45-35.39,84.16-51.47,85.91-90.79.94-21.15-11.35-37.37-14.88-42.03-35.85-47.32-127.81-52.39-199.28-30.76-109.86,33.25-113.54,112.1-236.85,148.56-46.95,13.88-85.08,13.89-110.34,13.7-130.85-.98-228.15-63.02-272.26-95.87-38.14-31.46-120.92-90.97-241.94-111.9-49.65-8.59-148.77-25.73-257.05,23.21C71.16,92.36,15.24,208.02,0,242.81v770.67c554.67-1.86,1109.33,1.86,1664,0V473.29c-67.51-.66-135.02-1.32-202.53-1.97Zm-360.04,89.36l-28.16-14.21c.58,6.44.89,12.95.89,19.54,0,10.46-.76,20.75-2.2,30.81-1.68,11.71-4.3,23.12-7.78,34.15l30.45-7.8c17.58-4.5,33.19,12.2,27.52,29.43h0c-5.67,17.24-28.15,21.4-39.62,7.35l-19.87-24.35c-2.67,7.83-5.76,15.45-9.28,22.84-8.77,18.45-20.08,35.45-33.48,50.56l30.99,5.26c17.89,3.04,25.36,24.64,13.17,38.08h0c-12.19,13.44-34.42,8.11-39.18-9.4l-8.25-30.33c-2.36,2.54-4.77,5.03-7.24,7.46-17.8,17.44-38.62,31.81-61.58,42.28l26.09,17.36c15.11,10.05,13.15,32.83-3.46,40.15h0c-16.6,7.32-34.74-6.6-31.97-24.53l4.78-30.96c-25.54,10.94-53.62,17.08-83.11,17.31l16.79,26.5c9.71,15.33-1.34,35.34-19.49,35.27h0c-18.15-.07-29.05-20.16-19.23-35.41l16.99-26.38c-29.47-.44-57.51-6.78-82.98-17.91l4.56,31c2.64,17.95-15.6,31.73-32.15,24.29h0c-16.55-7.44-18.34-30.23-3.16-40.17l26.22-17.17c-22.4-10.41-42.72-24.55-60.15-41.62-2.85-2.79-5.62-5.68-8.31-8.62l-8.47,30.28c-4.89,17.47-27.16,22.65-39.25,9.12h0c-12.09-13.53-4.46-35.08,13.45-37.98l31.04-5.04c-12.94-14.82-23.9-31.41-32.44-49.38-3.74-7.86-7-15.99-9.78-24.34l-20.05,24.21c-11.57,13.97-34.02,9.64-39.56-7.63h0c-5.54-17.28,10.19-33.86,27.74-29.23l30.39,8.02c-3.24-10.56-5.71-21.46-7.31-32.64-1.44-10.06-2.2-20.35-2.2-30.81,0-7.13.36-14.17,1.04-21.12l-28.27,14.01c-16.26,8.06-35-5.03-33.04-23.07h0c1.96-18.04,23.08-26.79,37.23-15.42l24.59,19.76c.2-1.67.41-3.33.65-4.98,3.11-21.76,9.47-42.47,18.57-61.62,2.29-4.83,4.77-9.55,7.41-14.17l-31.57,1.3c-18.13.75-29.93-18.83-20.8-34.51h0c9.13-15.68,31.98-15.08,40.28,1.05l14.46,28.11c9.53-15.91,21.05-30.5,34.22-43.41,7.19-7.05,14.88-13.59,23-19.58l-29.44-11.68c-16.87-6.69-19.68-29.38-4.96-39.99h0c14.72-10.61,35.35-.77,36.37,17.34l1.78,31.63c23.04-16.26,49.41-28.11,77.88-34.35l-22.14-22.64c-12.69-12.97-6.03-34.84,11.73-38.55h0c17.76-3.71,32.61,13.67,26.17,30.64l-11.24,29.61c13.52-2.66,27.49-4.06,41.79-4.06s29.33,1.5,43.33,4.36l-11.02-29.68c-6.31-17.01,8.66-34.28,26.39-30.45h0c17.74,3.84,24.23,25.76,11.45,38.63l-22.3,22.46c28.41,6.44,54.69,18.5,77.62,34.93l2.01-31.62c1.15-18.11,21.85-27.8,36.5-17.08h0c14.64,10.72,11.66,33.38-5.26,39.95l-29.54,11.47c7.66,5.74,14.93,11.96,21.75,18.64,13.54,13.27,25.35,28.31,35.03,44.75l14.65-27.99c8.42-16.08,31.27-16.51,40.29-.76h0c9.02,15.75-2.93,35.24-21.05,34.36l-31.55-1.53c2.34,4.18,4.55,8.45,6.62,12.8,9.1,19.16,15.46,39.87,18.57,61.62.31,2.17.58,4.36.83,6.55l24.74-19.58c14.23-11.26,35.28-2.36,37.11,15.69h0c1.83,18.05-17.01,31-33.21,22.83Z"/>
        <path class="uuid-18df94ea-e9c3-4900-bcfb-47b4ef3d282a" d="m855.21,781.65c1.08.02,2.17.04,3.25.04.56,0,1.12-.02,1.68-.02l-2.45-3.87-2.48,3.85Z"/>
        <path class="uuid-18df94ea-e9c3-4900-bcfb-47b4ef3d282a" d="m767.69,761.69c1.5.7,3.02,1.38,4.54,2.05l-.67-4.58-3.86,2.53Z"/>
        <path class="uuid-18df94ea-e9c3-4900-bcfb-47b4ef3d282a" d="m695.99,707.82c1.07,1.22,2.14,2.43,3.24,3.62l1.22-4.35-4.45.72Z"/>
        <path class="uuid-18df94ea-e9c3-4900-bcfb-47b4ef3d282a" d="m652.29,629.46c.48,1.55.97,3.1,1.49,4.64l2.89-3.48-4.37-1.15Z"/>
        <path class="uuid-18df94ea-e9c3-4900-bcfb-47b4ef3d282a" d="m644.34,540.18c-.19,1.57-.36,3.14-.51,4.71l3.95-1.96-3.43-2.76Z"/>
        <path class="uuid-18df94ea-e9c3-4900-bcfb-47b4ef3d282a" d="m673.32,455.35c-.8,1.34-1.59,2.69-2.36,4.05l4.35-.18-1.99-3.87Z"/>
        <path class="uuid-18df94ea-e9c3-4900-bcfb-47b4ef3d282a" d="m734.28,389.67c-1.26.89-2.5,1.78-3.74,2.69l3.98,1.58-.24-4.27Z"/>
        <path class="uuid-18df94ea-e9c3-4900-bcfb-47b4ef3d282a" d="m816.68,354.38c-1.51.3-3.02.61-4.52.94l3,3.07,1.52-4.01Z"/>
        <path class="uuid-18df94ea-e9c3-4900-bcfb-47b4ef3d282a" d="m906.32,355.66c-1.5-.34-3.01-.66-4.53-.97l1.5,4.03,3.03-3.06Z"/>
        <path class="uuid-18df94ea-e9c3-4900-bcfb-47b4ef3d282a" d="m987.65,393.31c-1.23-.92-2.46-1.82-3.71-2.72l-.27,4.26,3.98-1.54Z"/>
        <path class="uuid-18df94ea-e9c3-4900-bcfb-47b4ef3d282a" d="m1046.77,460.77c-.77-1.37-1.55-2.73-2.34-4.08l-2.02,3.87,4.37.21Z"/>
        <path class="uuid-18df94ea-e9c3-4900-bcfb-47b4ef3d282a" d="m1069.33,544.48l3.94,1.99c-.14-1.58-.31-3.15-.48-4.72l-3.45,2.73Z"/>
        <path class="uuid-18df94ea-e9c3-4900-bcfb-47b4ef3d282a" d="m1062.66,635.6c.52-1.54,1.03-3.08,1.52-4.63l-4.38,1.12,2.86,3.51Z"/>
        <path class="uuid-18df94ea-e9c3-4900-bcfb-47b4ef3d282a" d="m1016.64,712.61c1.1-1.19,2.19-2.39,3.27-3.6l-4.45-.76,1.19,4.36Z"/>
        <path class="uuid-18df94ea-e9c3-4900-bcfb-47b4ef3d282a" d="m943.26,764.36c1.53-.65,3.05-1.32,4.55-2.01l-3.85-2.56-.71,4.57Z"/>
      </g>
      <g id="uuid-1bd53d3e-89ee-4555-a436-2e16f5ceb090" data-name="uuid-6f2a6c1a-fa7b-451d-8229-f0c95f2abd3a">
        <path class="uuid-884e4707-44ed-4b9b-99d3-3f9d27ec4d77" d="m898.25,592.88c-.24-6.59-1.97-12.42-5.19-17.48l-21.85-34.01c-.47-.74-.91-1.49-1.33-2.24-1.37-2.52-2.41-5.15-3.12-7.89h-42.58c.69,1.63,1.52,3.2,2.47,4.7l2.05,3.19,19.8,30.82c3.77,5.9,5.65,12.48,5.65,19.72v3.2h11.4v-6.07h17.48v34.23c0,5.83,2.56,8.74,7.68,8.74s7.57-2.92,7.57-8.74v-26.55c0-.54,0-1.07-.03-1.6Zm-61.63,0h-15.22v28.16c0,5.83,2.56,8.75,7.68,8.75s7.57-2.92,7.57-8.75v-26.55c0-.55-.01-1.09-.03-1.62Zm61.63,0c-.24-6.59-1.97-12.42-5.19-17.48l-21.85-34.01c-.47-.74-.91-1.49-1.33-2.24h-41.18l19.8,30.82c3.77,5.9,5.65,12.48,5.65,19.72v3.2h11.4v-6.07h17.48v34.23c0,5.83,2.56,8.74,7.68,8.74s7.57-2.92,7.57-8.74v-26.55c0-.54,0-1.07-.03-1.6Zm-61.63,0h-15.22v28.16c0,5.83,2.56,8.75,7.68,8.75s7.57-2.92,7.57-8.75v-26.55c0-.55-.01-1.09-.03-1.62Zm61.63,0c-.24-6.59-1.97-12.42-5.19-17.48l-21.85-34.01c-.47-.74-.91-1.49-1.33-2.24h-41.18l19.8,30.82c3.77,5.9,5.65,12.48,5.65,19.72v3.2h11.4v-6.07h17.48v34.23c0,5.83,2.56,8.74,7.68,8.74s7.57-2.92,7.57-8.74v-26.55c0-.54,0-1.07-.03-1.6Zm-61.63,0h-15.22v28.16c0,5.83,2.56,8.75,7.68,8.75s7.57-2.92,7.57-8.75v-26.55c0-.55-.01-1.09-.03-1.62Zm132.53-113.84h-.01c-.33-.52-.67-1.03-1.03-1.52-2.17-3.06-4.69-5.65-7.56-7.89-8.67-6.79-20.57-10.54-35.78-15.33-27.84-8.76-50.85-8.93-65.03-8.93s-37.07.19-64.81,8.93c-15.21,4.79-27.11,8.54-35.79,15.33-2.87,2.24-5.39,4.83-7.56,7.89-.36.49-.7,1-1.03,1.52-4.58,7.17-8.96,19.24-2.28,50.75.1.47.2.95.32,1.46.5,2.29,1.12,4.94,1.87,7.89,3.37,13.22,9.48,32.56,20.37,53.74,1.33,2.6,2.74,5.23,4.23,7.89,9.98,17.8,23.38,36.51,41.37,53.73,2.78,2.67,5.68,5.3,8.69,7.89,6.53,5.62,13.59,11.02,21.24,16.13,5.83,3.89,10.7,6.75,13.49,8.34,2.79-1.6,7.67-4.46,13.49-8.34,7.64-5.11,14.7-10.51,21.23-16.13,3.01-2.58,5.91-5.21,8.69-7.89,17.98-17.22,31.39-35.93,41.37-53.73,1.49-2.65,2.89-5.28,4.23-7.89,10.89-21.18,17-40.51,20.37-53.74.75-2.95,1.37-5.6,1.87-7.89.11-.51.22-.99.32-1.46,6.67-31.5,2.3-43.58-2.28-50.75Zm-158.04,148.19c-4.8-4.33-7.2-9.6-7.2-15.78v-72.95l.41.65,17.08,27.24v54.66c0,5.83,2.56,8.75,7.68,8.75s7.57-2.92,7.57-8.75v-26.55c0-.55-.01-1.09-.03-1.62-.24-6.58-1.98-12.4-5.19-17.47l-21.84-34.01c-.47-.74-.92-1.49-1.33-2.26-1.37-2.52-2.41-5.15-3.12-7.89-.8-3.02-1.19-6.18-1.19-9.48v-20.8c0-6.19,2.4-11.45,7.2-15.78,4.81-4.34,10.78-6.51,17.97-6.51s13.07,2.16,17.86,6.51c4.8,4.33,7.2,9.6,7.2,15.78v24.63h-.01s-17.49,0-17.49,0v-34.23c0-5.83-2.52-8.75-7.57-8.75s-7.67,2.92-7.67,8.75v25.59c0,5.21.91,9.98,2.76,14.28.69,1.63,1.52,3.2,2.47,4.7l2.05,3.19,19.8,30.82c3.77,5.9,5.65,12.48,5.65,19.72v21.76c0,3.1-.6,5.96-1.8,8.59-1.2,2.63-3,5.03-5.4,7.19-4.81,4.34-10.76,6.51-17.86,6.51s-13.16-2.16-17.97-6.51Zm77.16-91.27l2.05,3.19,19.81,30.82c3.77,5.9,5.64,12.48,5.64,19.72v21.76c0,3.1-.6,5.96-1.8,8.59-1.2,2.63-3,5.03-5.4,7.19-4.8,4.34-10.75,6.51-17.86,6.51s-13.16-2.16-17.97-6.51c-4.8-4.33-7.2-9.6-7.2-15.78v-24.63h17.48v34.23c0,5.83,2.56,8.74,7.68,8.74s7.57-2.92,7.57-8.74v-26.55c0-.54,0-1.07-.03-1.6-.24-6.59-1.97-12.42-5.19-17.48l-21.85-34.01c-.47-.74-.91-1.49-1.33-2.24-1.37-2.52-2.41-5.15-3.12-7.89-.8-3.02-1.2-6.19-1.2-9.49v-20.79c0-6.19,2.4-11.45,7.2-15.79,4.81-4.33,10.78-6.51,17.97-6.51s13.07,2.16,17.86,6.51c4.79,4.35,7.2,9.61,7.2,15.79v24.63h-17.49v-34.23c0-5.83-2.52-8.75-7.57-8.75s-7.68,2.92-7.68,8.75v25.59c0,5.21.91,9.98,2.76,14.28.69,1.63,1.52,3.2,2.47,4.7Zm-51.65,56.93h-15.22v28.16c0,5.83,2.56,8.75,7.68,8.75s7.57-2.92,7.57-8.75v-26.55c0-.55-.01-1.09-.03-1.62Zm61.63,0c-.24-6.59-1.97-12.42-5.19-17.48l-21.85-34.01c-.47-.74-.91-1.49-1.33-2.24h-41.18l19.8,30.82c3.77,5.9,5.65,12.48,5.65,19.72v3.2h11.4v-6.07h17.48v34.23c0,5.83,2.56,8.74,7.68,8.74s7.57-2.92,7.57-8.74v-26.55c0-.54,0-1.07-.03-1.6Zm-61.63,0h-15.22v28.16c0,5.83,2.56,8.75,7.68,8.75s7.57-2.92,7.57-8.75v-26.55c0-.55-.01-1.09-.03-1.62Zm61.63,0c-.24-6.59-1.97-12.42-5.19-17.48l-21.85-34.01c-.47-.74-.91-1.49-1.33-2.24h-41.18l19.8,30.82c3.77,5.9,5.65,12.48,5.65,19.72v3.2h11.4v-6.07h17.48v34.23c0,5.83,2.56,8.74,7.68,8.74s7.57-2.92,7.57-8.74v-26.55c0-.54,0-1.07-.03-1.6Zm-61.63,0h-15.22v28.16c0,5.83,2.56,8.75,7.68,8.75s7.57-2.92,7.57-8.75v-26.55c0-.55-.01-1.09-.03-1.62Zm61.63,0c-.24-6.59-1.97-12.42-5.19-17.48l-21.85-34.01c-.47-.74-.91-1.49-1.33-2.24-1.37-2.52-2.41-5.15-3.12-7.89h-42.58c.69,1.63,1.52,3.2,2.47,4.7l2.05,3.19,19.8,30.82c3.77,5.9,5.65,12.48,5.65,19.72v3.2h11.4v-6.07h17.48v34.23c0,5.83,2.56,8.74,7.68,8.74s7.57-2.92,7.57-8.74v-26.55c0-.54,0-1.07-.03-1.6Z"/>
      </g>
    </g>
  </g>
</svg>