<?xml version="1.0" encoding="UTF-8"?>
<svg id="uuid-e3330cdd-b3be-4658-ae29-0afeeb3f9f6c" data-name="Capa 2" xmlns="http://www.w3.org/2000/svg" viewBox="0 0 231.8 243.41">
  <defs>
    <style>
      .uuid-5afa86dc-96b5-401b-8512-4b6c95d1a223 {
        fill: #fff;
        stroke-width: 0px;
      }
    </style>
  </defs>
  <g id="uuid-6f2a6c1a-fa7b-451d-8229-f0c95f2abd3a" data-name="uuid-b97cea78-2631-44f6-bead-10ac2c89b0ab">
    <path class="uuid-5afa86dc-96b5-401b-8512-4b6c95d1a223" d="m226.06,33.94c-8.67-13.58-23.49-18.25-44.72-24.94C153.28.17,130.09,0,115.8,0c-14.26,0-37.37.19-65.33,9C29.25,15.68,14.42,20.35,5.75,33.94c-4.62,7.23-9.03,19.39-2.3,51.15,5.37,25.37,25.89,101.18,98.86,149.91,5.87,3.92,10.78,6.8,13.6,8.41,2.82-1.61,7.73-4.49,13.6-8.41,72.96-48.74,93.48-124.54,98.86-149.91,6.73-31.75,2.32-43.92-2.3-51.15Zm-115.9,46.93h-17.63v-34.5c0-5.88-2.54-8.81-7.63-8.81s-7.74,2.94-7.74,8.81v25.8c0,7.24,1.75,13.62,5.27,19.13l22.03,34.28c3.8,5.95,5.69,12.58,5.69,19.88v21.93h0c0,6.24-2.42,11.55-7.26,15.91-4.84,4.37-10.84,6.56-18,6.56s-13.27-2.18-18.11-6.56c-4.84-4.37-7.26-9.68-7.26-15.91v-73.53l17.63,28.11v55.1c0,5.88,2.58,8.81,7.74,8.81s7.63-2.94,7.63-8.81v-26.76c0-7.31-1.76-13.72-5.27-19.24l-22.02-34.28c-3.8-5.95-5.69-12.54-5.69-19.78v-20.96c0-6.24,2.42-11.54,7.26-15.91,4.84-4.37,10.87-6.56,18.11-6.56s13.17,2.18,18,6.56c4.84,4.37,7.26,9.68,7.26,15.91v24.83Zm62.12,0h-17.63v-34.5c0-5.88-2.54-8.81-7.63-8.81s-7.74,2.94-7.74,8.81v25.8c0,7.24,1.75,13.62,5.27,19.13l22.03,34.28c3.8,5.95,5.69,12.58,5.69,19.88v21.93h0c0,6.24-2.42,11.55-7.26,15.91-4.84,4.37-10.84,6.56-18,6.56s-13.27-2.18-18.11-6.56c-4.84-4.37-7.26-9.68-7.26-15.91v-24.83h17.63v34.5c0,5.88,2.58,8.81,7.74,8.81s7.63-2.94,7.63-8.81v-26.76c0-7.31-1.76-13.72-5.27-19.24l-22.03-34.28c-3.8-5.95-5.69-12.54-5.69-19.78v-20.96c0-6.24,2.42-11.54,7.26-15.91,4.84-4.37,10.87-6.56,18.11-6.56s13.17,2.18,18,6.56,7.26,9.68,7.26,15.91v24.83Z"/>
  </g>
</svg>