<?xml version="1.0" encoding="UTF-8"?>
<svg id="uuid-b97cea78-2631-44f6-bead-10ac2c89b0ab" data-name="Capa 2" xmlns="http://www.w3.org/2000/svg" viewBox="0 0 652.35 286.22">
  <defs>
    <style>
      .uuid-5a7f3069-e0eb-4f6c-8989-f2fa624b2693 {
        fill: #fff;
        stroke-width: 0px;
      }
    </style>
  </defs>
  <g id="uuid-d4d02e1a-9c5d-4d8b-9edd-d6c6015a969e" data-name="Capa 1">
    <g>
      <path class="uuid-5a7f3069-e0eb-4f6c-8989-f2fa624b2693" d="m77.43,204.68c0,9.54-3.7,17.65-11.1,24.33-7.4,6.69-16.58,10.03-27.54,10.03s-20.3-3.34-27.7-10.03c-7.4-6.68-11.1-14.8-11.1-24.33v-112.48l26.96,43v84.28c0,8.99,3.95,13.48,11.84,13.48s11.67-4.49,11.67-13.48v-40.94c0-11.18-2.69-20.99-8.06-29.43L8.71,96.67C2.9,87.57,0,77.49,0,66.42v-32.06c0-9.54,3.7-17.65,11.1-24.33C18.5,3.34,27.73,0,38.8,0s20.14,3.34,27.54,10.03c7.4,6.69,11.1,14.8,11.1,24.33v37.98h-26.96V19.56c0-8.99-3.89-13.48-11.67-13.48s-11.84,4.5-11.84,13.48v39.46c0,11.07,2.68,20.83,8.06,29.26l33.7,52.44c5.81,9.1,8.71,19.24,8.71,30.41v33.54Z"/>
      <path class="uuid-5a7f3069-e0eb-4f6c-8989-f2fa624b2693" d="m172.46,204.68c0,9.54-3.7,17.65-11.1,24.33-7.4,6.69-16.58,10.03-27.54,10.03s-20.3-3.34-27.7-10.03c-7.4-6.68-11.1-14.8-11.1-24.33v-37.98h26.96v52.77c0,8.99,3.95,13.48,11.84,13.48s11.67-4.49,11.67-13.48v-40.94c0-11.18-2.69-20.99-8.06-29.43l-33.7-52.44c-5.81-9.1-8.71-19.18-8.71-30.25v-32.06c0-9.54,3.7-17.65,11.1-24.33,7.4-6.68,16.63-10.03,27.7-10.03s20.14,3.34,27.54,10.03c7.4,6.69,11.1,14.8,11.1,24.33v37.98h-26.96V19.56c0-8.99-3.89-13.48-11.67-13.48s-11.84,4.5-11.84,13.48v39.46c0,11.07,2.68,20.83,8.06,29.26l33.7,52.44c5.81,9.1,8.71,19.24,8.71,30.41v33.54Z"/>
      <path class="uuid-5a7f3069-e0eb-4f6c-8989-f2fa624b2693" d="m238.88,237.4h-8.38c-10.96,0-20.03-3.34-27.21-10.03-7.18-6.68-10.77-14.8-10.77-24.33V68.39h-8.55v-6.08h8.55V13.48l26.14-11.84v60.66h18.91v6.08h-18.91v149.44c0,8.99,3.95,13.48,11.84,13.48h8.38v6.08Z"/>
      <path class="uuid-5a7f3069-e0eb-4f6c-8989-f2fa624b2693" d="m325.19,115.9h-26.3v-35.68c0-8.55-2.69-12.82-8.06-12.82-3.51,0-7.02,1.92-10.52,5.75v158.15h8.55v6.08h-43.24v-6.08h8.55V68.39h-8.55v-6.08h34.69v4.77c4.93-4.27,11.12-6.41,18.58-6.41,17.53,0,26.3,10.3,26.3,30.91v24.33Z"/>
      <path class="uuid-5a7f3069-e0eb-4f6c-8989-f2fa624b2693" d="m377.79,237.4h-43.07v-6.08h8.38V68.39h-8.38v-6.08h34.69v169h8.38v6.08Zm-8.38-195.31h-26.31V1.64h26.31v40.44Z"/>
      <path class="uuid-5a7f3069-e0eb-4f6c-8989-f2fa624b2693" d="m475.94,237.4h-34.52V80.23c0-8.55-3.29-12.82-9.86-12.82-4.27,0-8.33,1.92-12.17,5.75v158.15h8.55v6.08h-43.24v-6.08h8.55V68.39h-8.55v-6.08h34.69v4.77c4.93-4.27,11.45-6.41,19.56-6.41,19.07,0,28.61,10.3,28.61,30.91v139.74h8.38v6.08Z"/>
      <path class="uuid-5a7f3069-e0eb-4f6c-8989-f2fa624b2693" d="m569.32,68.39h-8.38v183.47c0,9.64-3.4,17.78-10.19,24.41-6.8,6.63-15.62,9.95-26.47,9.95-10.19,0-19.04-3.37-26.55-10.11-7.51-6.74-11.26-14.82-11.26-24.25v-6.08h26.3v20.88c0,8.99,3.83,13.48,11.51,13.48,6.91,0,10.36-4.5,10.36-13.48v-37.32c-4.93,4.27-11.45,6.41-19.56,6.41-19.07,0-28.61-10.36-28.61-31.07v-113.11c0-20.6,9.54-30.91,28.61-30.91,8.11,0,14.63,2.14,19.56,6.41v-4.77h34.69v6.08Zm-34.69,154.87V73.16c-3.84-3.84-7.89-5.75-12.17-5.75-6.47,0-9.7,4.27-9.7,12.82v135.96c0,8.55,3.23,12.82,9.7,12.82,4.27,0,8.33-1.92,12.17-5.75Z"/>
      <path class="uuid-5a7f3069-e0eb-4f6c-8989-f2fa624b2693" d="m652.35,204.68c0,9.76-3.23,17.87-9.7,24.33-6.9,6.69-15.78,10.03-26.63,10.03s-19.73-3.31-26.63-9.95c-6.91-6.63-10.36-14.77-10.36-24.41v-20.88h26.3v35.68c0,8.99,3.56,13.48,10.69,13.48s10.19-4.49,10.19-13.48v-25.81c0-10.85-3.07-19.29-9.21-25.32l-27.62-27.29c-6.91-6.79-10.36-16.77-10.36-29.92v-16.11c0-9.75,3.34-17.92,10.03-24.5,6.68-6.58,15.45-9.86,26.3-9.86s19.62,3.29,26.3,9.86c6.68,6.58,10.03,14.74,10.03,24.5v20.88h-26.14v-35.68c0-8.99-3.4-13.48-10.19-13.48s-10.03,4.5-10.03,13.48v23.18c0,10.85,3.01,19.24,9.04,25.15l27.62,27.29c6.91,6.9,10.36,16.93,10.36,30.09v18.74Z"/>
    </g>
  </g>
</svg>